<mxfile host="app.diagrams.net" modified="2023-04-04T16:51:20.512Z" agent="Mozilla/5.0 (Windows NT 10.0; Win64; x64) AppleWebKit/537.36 (KHTML, like Gecko) Chrome/111.0.0.0 Safari/537.36" etag="06yS8I-Qf2rXgQMSGgQr" version="21.1.2" type="github">
  <diagram name="第 1 页" id="Nb5IXyK1JuDazcwR1EP6">
    <mxGraphModel dx="2022" dy="663" grid="1" gridSize="10" guides="1" tooltips="1" connect="1" arrows="1" fold="1" page="1" pageScale="1" pageWidth="827" pageHeight="1169" math="0" shadow="0">
      <root>
        <mxCell id="0" />
        <mxCell id="1" parent="0" />
        <mxCell id="ZrajQLCjrcMDGIsiWecS-1" value="" style="rounded=1;whiteSpace=wrap;html=1;fillColor=#d5e8d4;strokeColor=#82b366;" vertex="1" parent="1">
          <mxGeometry x="100" y="335" width="180" height="220" as="geometry" />
        </mxCell>
        <mxCell id="ZrajQLCjrcMDGIsiWecS-2" value="SNAT" style="rounded=0;whiteSpace=wrap;html=1;" vertex="1" parent="1">
          <mxGeometry x="140" y="385" width="100" height="30" as="geometry" />
        </mxCell>
        <mxCell id="ZrajQLCjrcMDGIsiWecS-3" value="ip_vs_in_hook" style="rounded=0;whiteSpace=wrap;html=1;" vertex="1" parent="1">
          <mxGeometry x="140" y="435" width="100" height="30" as="geometry" />
        </mxCell>
        <mxCell id="ZrajQLCjrcMDGIsiWecS-4" value="ip_vs_out_hook" style="rounded=0;whiteSpace=wrap;html=1;" vertex="1" parent="1">
          <mxGeometry x="140" y="485" width="100" height="30" as="geometry" />
        </mxCell>
        <mxCell id="ZrajQLCjrcMDGIsiWecS-5" value="100" style="text;html=1;strokeColor=none;fillColor=none;align=center;verticalAlign=middle;whiteSpace=wrap;rounded=0;" vertex="1" parent="1">
          <mxGeometry x="240" y="385" width="40" height="30" as="geometry" />
        </mxCell>
        <mxCell id="ZrajQLCjrcMDGIsiWecS-6" value="99" style="text;html=1;strokeColor=none;fillColor=none;align=center;verticalAlign=middle;whiteSpace=wrap;rounded=0;" vertex="1" parent="1">
          <mxGeometry x="240" y="435" width="40" height="30" as="geometry" />
        </mxCell>
        <mxCell id="ZrajQLCjrcMDGIsiWecS-7" value="98" style="text;html=1;strokeColor=none;fillColor=none;align=center;verticalAlign=middle;whiteSpace=wrap;rounded=0;" vertex="1" parent="1">
          <mxGeometry x="240" y="485" width="40" height="30" as="geometry" />
        </mxCell>
        <mxCell id="ZrajQLCjrcMDGIsiWecS-8" value="优先级" style="text;html=1;strokeColor=none;fillColor=none;align=center;verticalAlign=middle;whiteSpace=wrap;rounded=0;" vertex="1" parent="1">
          <mxGeometry x="230" y="345" width="60" height="30" as="geometry" />
        </mxCell>
        <mxCell id="ZrajQLCjrcMDGIsiWecS-9" value="" style="rounded=1;whiteSpace=wrap;html=1;fillColor=#d5e8d4;strokeColor=#82b366;" vertex="1" parent="1">
          <mxGeometry x="580" y="340" width="180" height="220" as="geometry" />
        </mxCell>
        <mxCell id="ZrajQLCjrcMDGIsiWecS-10" value="DNAT" style="rounded=0;whiteSpace=wrap;html=1;" vertex="1" parent="1">
          <mxGeometry x="620" y="390" width="100" height="30" as="geometry" />
        </mxCell>
        <mxCell id="ZrajQLCjrcMDGIsiWecS-11" value="ip_vs_out_hook" style="rounded=0;whiteSpace=wrap;html=1;" vertex="1" parent="1">
          <mxGeometry x="620" y="440" width="100" height="30" as="geometry" />
        </mxCell>
        <mxCell id="ZrajQLCjrcMDGIsiWecS-12" value="ip_vs_in_hook" style="rounded=0;whiteSpace=wrap;html=1;" vertex="1" parent="1">
          <mxGeometry x="620" y="490" width="100" height="30" as="geometry" />
        </mxCell>
        <mxCell id="ZrajQLCjrcMDGIsiWecS-13" value="-100" style="text;html=1;strokeColor=none;fillColor=none;align=center;verticalAlign=middle;whiteSpace=wrap;rounded=0;" vertex="1" parent="1">
          <mxGeometry x="720" y="390" width="40" height="30" as="geometry" />
        </mxCell>
        <mxCell id="ZrajQLCjrcMDGIsiWecS-14" value="-99" style="text;html=1;strokeColor=none;fillColor=none;align=center;verticalAlign=middle;whiteSpace=wrap;rounded=0;" vertex="1" parent="1">
          <mxGeometry x="720" y="440" width="40" height="30" as="geometry" />
        </mxCell>
        <mxCell id="ZrajQLCjrcMDGIsiWecS-15" value="-98" style="text;html=1;strokeColor=none;fillColor=none;align=center;verticalAlign=middle;whiteSpace=wrap;rounded=0;" vertex="1" parent="1">
          <mxGeometry x="720" y="490" width="40" height="30" as="geometry" />
        </mxCell>
        <mxCell id="ZrajQLCjrcMDGIsiWecS-16" value="优先级" style="text;html=1;strokeColor=none;fillColor=none;align=center;verticalAlign=middle;whiteSpace=wrap;rounded=0;" vertex="1" parent="1">
          <mxGeometry x="710" y="350" width="60" height="30" as="geometry" />
        </mxCell>
        <mxCell id="ZrajQLCjrcMDGIsiWecS-17" value="LOCAL_IN" style="text;html=1;align=center;verticalAlign=middle;whiteSpace=wrap;rounded=0;fontColor=#000000;fontStyle=1" vertex="1" parent="1">
          <mxGeometry y="425" width="70" height="30" as="geometry" />
        </mxCell>
        <mxCell id="ZrajQLCjrcMDGIsiWecS-18" value="LOCAL_OUT" style="text;html=1;strokeColor=none;fillColor=none;align=center;verticalAlign=middle;whiteSpace=wrap;rounded=0;fontColor=#000000;fontStyle=1" vertex="1" parent="1">
          <mxGeometry x="800" y="430" width="70" height="30" as="geometry" />
        </mxCell>
        <mxCell id="ZrajQLCjrcMDGIsiWecS-29" value="" style="rounded=1;whiteSpace=wrap;html=1;fillColor=#d5e8d4;strokeColor=#82b366;" vertex="1" parent="1">
          <mxGeometry x="280" y="600" width="300" height="80" as="geometry" />
        </mxCell>
        <mxCell id="ZrajQLCjrcMDGIsiWecS-31" value="ip_vs_forward_icmp" style="rounded=0;whiteSpace=wrap;html=1;" vertex="1" parent="1">
          <mxGeometry x="310" y="620" width="110" height="30" as="geometry" />
        </mxCell>
        <mxCell id="ZrajQLCjrcMDGIsiWecS-32" value="ip_vs_out_hook" style="rounded=0;whiteSpace=wrap;html=1;" vertex="1" parent="1">
          <mxGeometry x="460" y="620" width="100" height="30" as="geometry" />
        </mxCell>
        <mxCell id="ZrajQLCjrcMDGIsiWecS-34" value="99" style="text;html=1;strokeColor=none;fillColor=none;align=center;verticalAlign=middle;whiteSpace=wrap;rounded=0;" vertex="1" parent="1">
          <mxGeometry x="345" y="650" width="40" height="30" as="geometry" />
        </mxCell>
        <mxCell id="ZrajQLCjrcMDGIsiWecS-35" value="100" style="text;html=1;strokeColor=none;fillColor=none;align=center;verticalAlign=middle;whiteSpace=wrap;rounded=0;" vertex="1" parent="1">
          <mxGeometry x="490" y="650" width="40" height="30" as="geometry" />
        </mxCell>
        <mxCell id="ZrajQLCjrcMDGIsiWecS-36" value="优先级" style="text;html=1;strokeColor=none;fillColor=none;align=center;verticalAlign=middle;whiteSpace=wrap;rounded=0;" vertex="1" parent="1">
          <mxGeometry x="280" y="650" width="50" height="30" as="geometry" />
        </mxCell>
        <mxCell id="ZrajQLCjrcMDGIsiWecS-37" value="FORWARD" style="text;html=1;strokeColor=none;fillColor=none;align=center;verticalAlign=middle;whiteSpace=wrap;rounded=0;fontStyle=1" vertex="1" parent="1">
          <mxGeometry x="400" y="710" width="70" height="30" as="geometry" />
        </mxCell>
        <mxCell id="ZrajQLCjrcMDGIsiWecS-38" value="" style="endArrow=classic;html=1;rounded=0;entryX=0;entryY=0.5;entryDx=0;entryDy=0;" edge="1" parent="1" target="ZrajQLCjrcMDGIsiWecS-39">
          <mxGeometry width="50" height="50" relative="1" as="geometry">
            <mxPoint y="640" as="sourcePoint" />
            <mxPoint x="160" y="640" as="targetPoint" />
          </mxGeometry>
        </mxCell>
        <mxCell id="ZrajQLCjrcMDGIsiWecS-39" value="Route" style="ellipse;whiteSpace=wrap;html=1;aspect=fixed;" vertex="1" parent="1">
          <mxGeometry x="162.5" y="612.5" width="55" height="55" as="geometry" />
        </mxCell>
        <mxCell id="ZrajQLCjrcMDGIsiWecS-41" value="" style="endArrow=classic;html=1;rounded=0;entryX=0;entryY=0.5;entryDx=0;entryDy=0;" edge="1" parent="1" target="ZrajQLCjrcMDGIsiWecS-29">
          <mxGeometry width="50" height="50" relative="1" as="geometry">
            <mxPoint x="220" y="640" as="sourcePoint" />
            <mxPoint x="173" y="650" as="targetPoint" />
          </mxGeometry>
        </mxCell>
        <mxCell id="ZrajQLCjrcMDGIsiWecS-42" value="" style="endArrow=classic;html=1;rounded=0;entryX=0.5;entryY=1;entryDx=0;entryDy=0;" edge="1" parent="1" source="ZrajQLCjrcMDGIsiWecS-39" target="ZrajQLCjrcMDGIsiWecS-1">
          <mxGeometry width="50" height="50" relative="1" as="geometry">
            <mxPoint x="230" y="650" as="sourcePoint" />
            <mxPoint x="290" y="650" as="targetPoint" />
          </mxGeometry>
        </mxCell>
        <mxCell id="ZrajQLCjrcMDGIsiWecS-43" value="Route" style="ellipse;whiteSpace=wrap;html=1;aspect=fixed;" vertex="1" parent="1">
          <mxGeometry x="642.5" y="240" width="55" height="55" as="geometry" />
        </mxCell>
        <mxCell id="ZrajQLCjrcMDGIsiWecS-44" value="" style="endArrow=classic;html=1;rounded=0;exitX=0.5;exitY=0;exitDx=0;exitDy=0;" edge="1" parent="1" source="ZrajQLCjrcMDGIsiWecS-1">
          <mxGeometry width="50" height="50" relative="1" as="geometry">
            <mxPoint x="200" y="623" as="sourcePoint" />
            <mxPoint x="190" y="200" as="targetPoint" />
          </mxGeometry>
        </mxCell>
        <mxCell id="ZrajQLCjrcMDGIsiWecS-45" value="" style="endArrow=none;html=1;rounded=0;" edge="1" parent="1">
          <mxGeometry width="50" height="50" relative="1" as="geometry">
            <mxPoint x="100" y="200" as="sourcePoint" />
            <mxPoint x="760" y="200" as="targetPoint" />
          </mxGeometry>
        </mxCell>
        <mxCell id="ZrajQLCjrcMDGIsiWecS-46" value="" style="endArrow=classic;html=1;rounded=0;" edge="1" parent="1" source="ZrajQLCjrcMDGIsiWecS-43" target="ZrajQLCjrcMDGIsiWecS-9">
          <mxGeometry width="50" height="50" relative="1" as="geometry">
            <mxPoint x="670" y="300" as="sourcePoint" />
            <mxPoint x="670" y="200" as="targetPoint" />
          </mxGeometry>
        </mxCell>
        <mxCell id="ZrajQLCjrcMDGIsiWecS-47" value="" style="endArrow=classic;html=1;rounded=0;entryX=0.5;entryY=0;entryDx=0;entryDy=0;" edge="1" parent="1" target="ZrajQLCjrcMDGIsiWecS-43">
          <mxGeometry width="50" height="50" relative="1" as="geometry">
            <mxPoint x="670" y="200" as="sourcePoint" />
            <mxPoint x="680" y="350" as="targetPoint" />
          </mxGeometry>
        </mxCell>
        <mxCell id="ZrajQLCjrcMDGIsiWecS-48" value="" style="endArrow=classic;html=1;rounded=0;exitX=1;exitY=0.5;exitDx=0;exitDy=0;" edge="1" parent="1" source="ZrajQLCjrcMDGIsiWecS-29">
          <mxGeometry width="50" height="50" relative="1" as="geometry">
            <mxPoint x="680" y="305" as="sourcePoint" />
            <mxPoint x="800" y="640" as="targetPoint" />
          </mxGeometry>
        </mxCell>
        <mxCell id="ZrajQLCjrcMDGIsiWecS-49" value="" style="endArrow=classic;html=1;rounded=0;exitX=0.5;exitY=1;exitDx=0;exitDy=0;" edge="1" parent="1" source="ZrajQLCjrcMDGIsiWecS-9">
          <mxGeometry width="50" height="50" relative="1" as="geometry">
            <mxPoint x="680" y="305" as="sourcePoint" />
            <mxPoint x="670" y="640" as="targetPoint" />
          </mxGeometry>
        </mxCell>
      </root>
    </mxGraphModel>
  </diagram>
</mxfile>
